<svg xmlns="http://www.w3.org/2000/svg" viewBox="0 0 81.82 118.6"><defs><style>.cls-1{fill:#8676e0;}.cls-2{fill:#6a54e3;}</style></defs><title>PC_LOGO_FINAL</title><g id="Layer_2" data-name="Layer 2"><g id="Layer_1-2" data-name="Layer 1"><g id="Page-1"><g id="Artboard"><g id="Group"><path id="Fill-1" class="cls-1" d="M41.07,39V118.6a7.2,7.2,0,0,1-4.54-1.72l-.3-.3L.3,80.67c-.1-.1-.2-.3-.3-.4v-.1Z"/><path id="Fill-3" class="cls-2" d="M41.17,39.11.1,80.17a.76.76,0,0,1-.1-.51V1.49a1.45,1.45,0,0,1,2.52-1Z"/><path id="Fill-5" class="cls-2" d="M81.72,80.07h0a2.21,2.21,0,0,1-.3.51l-35.72,35.8-.4.4a6.67,6.67,0,0,1-4.54,1.72V39Z"/><path id="Fill-7" class="cls-1" d="M81.82,1.52V79.79a.91.91,0,0,1-.1.51l-41-41.16L79.29.41a1.51,1.51,0,0,1,2.52,1.11"/></g></g></g></g></g></svg>